<?xml version="1.0" encoding="UTF-8"?>
<svg id="Livello_1" data-name="Livello 1" xmlns="http://www.w3.org/2000/svg" viewBox="0 0 425.2 425.2">
  <defs>
    <style>
      .cls-1 {
        fill: #192642;
      }

      .cls-2 {
        fill: #0a67b0;
      }
    </style>
  </defs>
  <path class="cls-2" d="M239.93,406.71c-1.19-.38-2.44-.27-3.65-.34-2.79-.14-5.56-.47-8.33-.71-2.35-.2-4.69-.5-7.02-.83-2.71-.39-5.4-.87-8.1-1.37-5.16-.95-10.26-2.14-15.33-3.5-5.7-1.52-11.3-3.33-16.82-5.4-9.32-3.5-18.32-7.69-27.01-12.57-8.15-4.58-15.92-9.73-23.34-15.41-3.38-2.58-6.62-5.33-9.84-8.12-4.3-3.72-8.32-7.73-12.28-11.79-2.97-3.05-5.76-6.28-8.5-9.55-6.4-7.59-12.12-15.66-17.27-24.13-3.7-6.1-7.04-12.4-10.03-18.89-3.75-8.11-6.91-16.45-9.52-24.99-.31-1.03-.62-2.06-.92-3.09-.18-.61.05-.89.67-.65.24.1.47.1.7.11,1.79.06,3.59.06,5.37.2,2.48.19,4.96.25,7.44.38,2.72.14,5.45.24,8.17.36,3.55.17,7.1.21,10.64.39,2.13.11,4.25.08,6.38.12.98.02,1.52.36,1.88,1.33,2.35,6.39,5.28,12.52,8.5,18.52,2.9,5.38,6.12,10.56,9.63,15.55,2.18,3.1,4.49,6.1,6.89,9.03,3.78,4.62,7.79,9.03,12.09,13.16,3.61,3.47,7.36,6.76,11.28,9.89,4.58,3.65,9.32,7.07,14.27,10.17,5.91,3.7,12.05,7,18.41,9.89,5.43,2.47,10.96,4.65,16.63,6.46,5.81,1.86,11.71,3.41,17.72,4.52,3.35.62,6.7,1.21,10.08,1.63,3.29.41,6.58.68,9.88.94,5.14.41,10.27.36,15.41.29,2.11-.03,4.23-.14,6.34-.35,3.55-.35,7.1-.72,10.64-1.23,5.39-.76,10.7-1.83,15.97-3.16,7.2-1.82,14.22-4.17,21.07-7.01,4.08-1.69,8.09-3.54,12.01-5.58,7.59-3.96,14.83-8.48,21.67-13.63,1.42-1.07,2.82-2.17,4.2-3.3.4-.32.59-.29.9.11,1.58,1.98,3.18,3.94,4.79,5.9,1.47,1.8,2.97,3.57,4.43,5.37,1.83,2.24,3.63,4.5,5.46,6.74,2.07,2.52,4.16,5.02,6.23,7.53.87,1.05,1.7,2.12,2.59,3.14.44.51.17.81-.22,1.11-2.59,1.99-5.15,4.02-7.8,5.94-8.61,6.24-17.67,11.74-27.18,16.49-10.29,5.14-20.95,9.31-31.98,12.56-4.74,1.4-9.54,2.6-14.38,3.62-3.89.82-7.8,1.52-11.74,2.07-3.02.42-6.05.8-9.09,1.11-3.47.35-6.95.63-10.43.72-.15,0-.31-.01-.36.18h-17.23Z"/>
  <path class="cls-2" d="M54.63,204.25c.29-.2.18-.5.18-.75-.07-2.49.19-4.97.41-7.44.31-3.49.74-6.98,1.21-10.47.82-6.08,1.97-12.09,3.35-18.06,1.26-5.46,2.81-10.84,4.58-16.15,2.38-7.11,5.14-14.07,8.31-20.87,5.35-11.49,11.79-22.34,19.25-32.58,3.03-4.16,6.27-8.15,9.61-12.07,4.32-5.07,8.98-9.81,13.76-14.43,3.21-3.1,6.61-6,10.05-8.85,6.66-5.51,13.66-10.51,20.99-15.09,5.71-3.57,11.62-6.78,17.67-9.74.38-.18.66-.44.81.34.76,3.98,1.69,7.92,2.83,11.81,2.39,8.14,5.71,15.9,9.71,23.37.33.63,0,.77-.42.99-2.85,1.47-5.64,3.05-8.39,4.7-5.49,3.29-10.76,6.91-15.79,10.87-2.86,2.25-5.61,4.62-8.34,7.03-3.8,3.36-7.39,6.93-10.79,10.68-3.86,4.25-7.49,8.7-10.88,13.35-3.4,4.66-6.54,9.47-9.4,14.47-2.69,4.71-5.12,9.56-7.3,14.54-2.54,5.8-4.73,11.72-6.57,17.78-1.52,5-2.74,10.08-3.77,15.2-.6,2.96-1.04,5.96-1.47,8.95-.27,1.88-.37,3.78-.58,5.66-.3,2.8-.41,5.61-.58,8.41-.26,4.15-.13,8.29-.11,12.44.01,2.78.24,5.56.54,8.32.43,3.99.87,7.97,1.59,11.93.45,2.5.93,4.99,1.43,7.47.08.38.07.41-.37.4-3.33-.09-6.63-.52-9.94-.81-3.51-.3-7-.76-10.48-1.27-6.19-.9-12.34-2.01-18.43-3.47-.52-.13-.8-.37-.86-.97-.26-2.33-.62-4.64-.88-6.97-.18-1.59-.26-3.19-.39-4.79-.19-2.36-.41-4.71-.39-7.08,0-.06-.11-.12-.16-.18,0-5.56,0-11.13,0-16.69Z"/>
  <path class="cls-2" d="M257.16,18.49c.08.25.29.19.46.18,1.74-.13,3.46.1,5.18.23,2.27.17,4.55.41,6.82.65,2.63.28,5.25.59,7.87.98,3.52.52,7.03,1.12,10.5,1.85,5.01,1.06,9.99,2.3,14.91,3.73,5.27,1.53,10.45,3.28,15.57,5.25,8.11,3.12,15.99,6.78,23.6,10.99,8.29,4.58,16.19,9.75,23.75,15.45,1.4,1.05,2.76,2.16,4.14,3.23.46.35.58.64.15,1.18-2.66,3.32-5.26,6.68-7.89,10.02-2.37,3.01-4.77,6.02-7.14,9.03-2.61,3.32-5.22,6.64-7.81,9.97-.3.39-.47.47-.92.12-3.53-2.78-7.12-5.49-10.86-8-4.36-2.93-8.85-5.64-13.47-8.13-8.76-4.72-17.89-8.53-27.39-11.47-5.24-1.63-10.55-2.98-15.94-4.01-3.41-.65-6.83-1.24-10.29-1.65-2.33-.28-4.66-.55-7-.73-2.08-.16-4.17-.22-6.25-.38-3.96-.29-7.92-.14-11.88-.12-2.93.02-5.87.26-8.79.54-4.54.44-9.06,1.01-13.54,1.84-5.52,1.02-10.97,2.29-16.35,3.9-3.91,1.17-7.79,2.45-11.59,3.94-.59.23-.76-.05-.97-.5-2.44-5.1-4.58-10.32-6.35-15.7-1.44-4.37-2.56-8.83-3.44-13.34-.42-2.17-.64-4.38-.94-6.58-.05-.36.05-.58.47-.74,6.45-2.36,13.01-4.36,19.67-6.04,3.47-.87,6.97-1.66,10.48-2.33,2.73-.52,5.48-.97,8.24-1.35,3.03-.42,6.07-.83,9.12-1.1,2.22-.2,4.44-.41,6.66-.57,1.27-.09,2.54-.11,3.82-.15.15,0,.31.01.36-.18h17.05Z"/>
  <path class="cls-2" d="M282.26,140.07c-2.76.13-5.4.39-8.04.34-7.21-.15-14.28-1.11-20.91-4.19-3.18-1.48-6.13-3.32-8.88-5.51-.14-.11-.31-.2-.41-.39,1.22-.28,2.34.13,3.46.28,1.91.25,3.8.59,5.73.7,1.58.09,3.16.19,4.73.14,8.43-.27,16.39-2.23,23.79-6.45,4.98-2.84,9.97-5.71,15.42-7.61,3.29-1.14,6.65-1.98,10.11-2.47,3.08-.43,6.16-.68,9.25-.5,9.97.57,19.09,3.63,27.23,9.5,7.24,5.22,12.68,11.93,16.4,20.03,1.98,4.32,3.32,8.84,4.06,13.55.66,4.21.99,8.44.88,12.69-.09,3.41-.41,6.81-.86,10.21-.88,6.59-2.59,12.98-4.46,19.33-.39,1.34-.9,2.64-1.4,4.1-.76-.9-1.47-1.71-2.16-2.54-2.86-3.47-6.04-6.61-9.49-9.5-4.57-3.82-9.55-6.96-14.97-9.42-5.17-2.36-10.56-4.02-16.14-5.08-3.11-.59-6.23-1.02-9.39-1.3-3.65-.33-7.3-.37-10.94-.12-6.24.43-12.36,1.59-18.33,3.5-9.83,3.14-18.82,7.92-27.22,13.87-4.35,3.08-8.53,6.39-12.6,9.83-4.14,3.5-8.21,7.06-12.27,10.64-3.6,3.18-7.23,6.34-10.91,9.44-4.8,4.04-9.63,8.06-14.7,11.76-5.85,4.27-12.21,7.57-19.17,9.63-2.79.82-5.63,1.45-8.53,1.74-1.14.11-2.27.3-3.42.36-.46.02-.72-.14-.93-.55-5.31-10.47-10.93-20.8-15.69-31.54-3.39-7.65-6.17-15.52-8.14-23.65-.81-3.35-1.47-6.74-1.9-10.17-.31-2.46-.56-4.92-.76-7.39-.21-2.59-.24-5.19-.11-7.76.44-8.46,2.14-16.63,6.07-24.22,2.59-5,5.9-9.48,10.06-13.28,6.33-5.79,13.69-9.68,22.05-11.66,3.26-.77,6.55-1.24,9.89-1.49,1.89-.14,3.77-.18,5.65-.12,5.59.18,11.03,1.22,16.27,3.2,5.97,2.25,11.15,5.8,16.15,9.7,5.39,4.2,10.78,8.4,16.79,11.72,3.9,2.15,8.03,3.74,12.39,4.66,3.36.7,6.78,1,10.21.76,5.15-.36,10.12-1.6,14.85-3.7.63-.28.62-.28,1.25-1.05Z"/>
  <path class="cls-1" d="M310.46,192.46c1.48.17,2.97.08,4.45.2,3.12.26,6.21.72,9.26,1.38,7.3,1.57,14.22,4.22,20.83,7.69,2.87,1.51,5.59,3.25,7.34,6.14,1.41,2.32,1.66,4.79,1.13,7.39-.72,3.59-2.68,6.63-4.34,9.81-3.44,6.58-6.75,13.22-9.85,19.97-2.2,4.77-4.33,9.58-6.34,14.43-2.22,5.34-4.31,10.74-6.27,16.18-2.59,7.18-5.11,14.4-7.06,21.78-2.45,9.28-6.34,17.93-10.95,26.3-1.67,3.04-4.01,5.52-6.68,7.72-1.81,1.49-3.69,2.76-5.98,3.41-3.73,1.05-7.16.38-10.08-2.02-4.52-3.71-7.52-8.51-9.11-14.13-1.51-5.33-2.87-10.71-4.25-16.08-1.63-6.34-3.14-12.71-4.95-19.01-1.44-5-3.32-9.83-5.48-14.56-.79-1.73-1.64-3.39-2.73-4.96-2.77-4-8.32-4.41-11.49-1.56-1.9,1.71-3.05,3.82-3.97,6.15-2.12,5.38-4,10.84-5.76,16.34-1.86,5.85-3.49,11.76-4.98,17.71-1.42,5.67-2.72,11.37-4.27,17-1.28,4.65-3.67,8.63-7.29,11.81-2.88,2.53-6.21,4.04-10.14,3.64-2.41-.25-4.47-1.38-6.41-2.82-5.07-3.76-8.31-8.9-11.18-14.39-3.17-6.05-5.18-12.54-7.31-18.98-2.71-8.24-5.35-16.5-8-24.75-1.12-3.49-2.22-7-3.33-10.52,1.77-.32,3.54-.64,5.31-.96,3.79-.68,7.46-1.79,11.07-3.11,9.83-3.59,18.62-9.01,26.87-15.36,4.62-3.56,9.06-7.33,13.51-11.11,4.83-4.1,9.52-8.36,14.29-12.53,5-4.37,10.07-8.65,15.56-12.4,8.3-5.68,17.23-10.1,26.9-12.91,3.62-1.05,7.31-1.83,11.07-2.3,2.58-.33,5.17-.54,7.77-.57.95,0,1.9,0,2.84-.01Z"/>
</svg>